<svg id="Layer_1" data-name="Layer 1" xmlns="http://www.w3.org/2000/svg" viewBox="0 0 338.91 339.67"><defs><style>.cls-1{fill:none;stroke-width:2px;}.cls-1,.cls-2{stroke:#000;}.cls-2{fill:#fff;stroke-miterlimit:10;}</style></defs><title>CheedWungus</title><path class="cls-1" d="M5.08,5.78H342V343.45H5.08Z" transform="translate(-4.08 -4.78)"/><path class="cls-1" d="M282.73,40.55a15.37,15.37,0,0,1,15.56-15.16,15.8,15.8,0,0,1,11,4.44,15,15,0,0,1,4.55,10.72,15.57,15.57,0,0,1-31.12,0Z" transform="translate(-4.08 -4.78)"/><rect class="cls-2" x="11.77" y="17.71" width="28.6" height="72.51"/><rect class="cls-2" x="52.88" y="17.71" width="28.6" height="72.51"/><rect class="cls-2" x="92.96" y="17.71" width="28.6" height="72.51"/><rect class="cls-2" x="134.07" y="17.71" width="28.6" height="72.51"/><rect class="cls-2" x="175.43" y="17.71" width="28.6" height="72.51"/><rect class="cls-2" x="216.54" y="17.71" width="28.6" height="72.51"/><rect class="cls-2" x="23.52" y="124.95" width="291.57" height="195.57"/><rect class="cls-2" x="28.62" y="132.1" width="281.15" height="182.81"/><circle class="cls-2" cx="300.41" cy="317.76" r="1.32"/><path d="M33.72,76.11H28.94V47.23l-4.85,3v-5L28.94,42h4.78Z" transform="translate(-4.08 -4.78)"/><path d="M61.49,72,73.37,56.11A11.76,11.76,0,0,0,75,53.29a7.59,7.59,0,0,0,.57-2.73v-.05a4.15,4.15,0,0,0-1.19-3.16A4.78,4.78,0,0,0,71,46.22a4.7,4.7,0,0,0-3.38,1.23A5.6,5.6,0,0,0,66,50.93v0H61.07v0a12.65,12.65,0,0,1,1.72-5,8.77,8.77,0,0,1,3.36-3.16,10,10,0,0,1,4.76-1.09,11.76,11.76,0,0,1,5.2,1,7.34,7.34,0,0,1,3.29,3,9.64,9.64,0,0,1,1.12,4.81v0a10.63,10.63,0,0,1-.75,3.78,15.93,15.93,0,0,1-2.09,3.79L67.82,71.56H80.71v4.55H61.49Z" transform="translate(-4.08 -4.78)"/><path d="M107.92,76.46l-2.18-1a8.51,8.51,0,0,1-3.51-3,10.88,10.88,0,0,1-1.67-4.77h4.87a5.1,5.1,0,0,0,.92,2.39,4.19,4.19,0,0,0,1.81,1.4,6.92,6.92,0,0,0,2.61.45,5.09,5.09,0,0,0,3.68-1.26A4.71,4.71,0,0,0,115.77,67V66a5.7,5.7,0,0,0-1.25-3.94,4.45,4.45,0,0,0-3.51-1.4H108.6V56.11H111a4,4,0,0,0,3.09-1.19,4.78,4.78,0,0,0,1.1-3.38v-1A4.09,4.09,0,0,0,114,47.37a4.6,4.6,0,0,0-3.29-1.1,5,5,0,0,0-2.18.46,4.18,4.18,0,0,0-1.63,1.4,6.53,6.53,0,0,0-1,2.38h-4.85a12.32,12.32,0,0,1,1.77-4.78,8.64,8.64,0,0,1,3.29-3,9.77,9.77,0,0,1,4.57-1A9.43,9.43,0,0,1,117.57,44,8.63,8.63,0,0,1,120,50.54v.56a7.36,7.36,0,0,1-1.39,4.45,7.77,7.77,0,0,1-3.91,2.77A6.89,6.89,0,0,1,119,61.06a9,9,0,0,1,1.54,5.44v.56a10.49,10.49,0,0,1-1.15,5.09,7.68,7.68,0,0,1-3.34,3.21,11.71,11.71,0,0,1-5.29,1.1Z" transform="translate(-4.08 -4.78)"/><path d="M142.33,66.73l11.44-24.68h4.92l-11.15,24.4h16.71v4.43H142.33ZM157,56.07h4.66V76.13H157Z" transform="translate(-4.08 -4.78)"/><path d="M188.6,75.45a8.28,8.28,0,0,1-3.26-2.93,11.7,11.7,0,0,1-1.68-4.62v0h4.79v0a4.41,4.41,0,0,0,1.5,2.92,4.8,4.8,0,0,0,3.23,1,4.34,4.34,0,0,0,3.55-1.53A6.65,6.65,0,0,0,198,66V63.15a6.63,6.63,0,0,0-1.25-4.31,4.34,4.34,0,0,0-3.55-1.53,4.48,4.48,0,0,0-2.39.7,6.74,6.74,0,0,0-2,2h-4.36V42h17.37v4.55H189.2v7.66a6.66,6.66,0,0,1,4.24-1.52,9.91,9.91,0,0,1,5.05,1.21,7.83,7.83,0,0,1,3.19,3.57,13.4,13.4,0,0,1,1.09,5.65V66a12.94,12.94,0,0,1-1.13,5.65,7.93,7.93,0,0,1-3.28,3.58,10.29,10.29,0,0,1-5.18,1.23A10.06,10.06,0,0,1,188.6,75.45Z" transform="translate(-4.08 -4.78)"/><path d="M229.83,75.25a7.91,7.91,0,0,1-3.25-3.51,12.78,12.78,0,0,1-1.11-5.57v0a18.92,18.92,0,0,1,.45-4,22.61,22.61,0,0,1,1.28-4.1c.1-.23.2-.47.31-.69l.33-.67L235.24,42h5.16l-8.7,17,0-.84a4,4,0,0,1,1.71-1.71,5.37,5.37,0,0,1,2.62-.61,8.34,8.34,0,0,1,4.55,1.19,7.43,7.43,0,0,1,2.88,3.48,13.83,13.83,0,0,1,1,5.5v0a12.94,12.94,0,0,1-1.12,5.63,7.82,7.82,0,0,1-3.25,3.56A10.3,10.3,0,0,1,235,76.46,10.19,10.19,0,0,1,229.83,75.25Zm8.64-4.79a5.92,5.92,0,0,0,1.23-4v0A6.75,6.75,0,0,0,238.41,62a4.51,4.51,0,0,0-3.68-1.56A3.89,3.89,0,0,0,231.42,62a7.3,7.3,0,0,0-1.17,4.43v0a5.86,5.86,0,0,0,1.23,4,5.08,5.08,0,0,0,7,0Z" transform="translate(-4.08 -4.78)"/></svg>